<svg width="48" height="48" viewBox="0 0 48 48" fill="none" xmlns="http://www.w3.org/2000/svg">
<rect width="48" height="48" rx="14" fill="url(#paint0_linear_904_2497)"/>
<path d="M14.444 23.812C14.444 22.996 14.632 22.264 15.008 21.616C15.392 20.968 15.908 20.464 16.556 20.104C17.212 19.736 17.928 19.552 18.704 19.552C19.592 19.552 20.38 19.772 21.068 20.212C21.764 20.644 22.268 21.26 22.58 22.06H20.936C20.72 21.62 20.42 21.292 20.036 21.076C19.652 20.86 19.208 20.752 18.704 20.752C18.152 20.752 17.66 20.876 17.228 21.124C16.796 21.372 16.456 21.728 16.208 22.192C15.968 22.656 15.848 23.196 15.848 23.812C15.848 24.428 15.968 24.968 16.208 25.432C16.456 25.896 16.796 26.256 17.228 26.512C17.66 26.76 18.152 26.884 18.704 26.884C19.208 26.884 19.652 26.776 20.036 26.56C20.42 26.344 20.72 26.016 20.936 25.576H22.58C22.268 26.376 21.764 26.992 21.068 27.424C20.38 27.856 19.592 28.072 18.704 28.072C17.92 28.072 17.204 27.892 16.556 27.532C15.908 27.164 15.392 26.656 15.008 26.008C14.632 25.36 14.444 24.628 14.444 23.812ZM32.9653 19.66V28H31.5973V22.288L29.0533 28H28.1053L25.5493 22.288V28H24.1813V19.66H25.6573L28.5853 26.2L31.5013 19.66H32.9653Z" fill="white"/>
<defs>
<linearGradient id="paint0_linear_904_2497" x1="48" y1="48" x2="-15.9741" y2="43.0496" gradientUnits="userSpaceOnUse">
<stop stop-color="#C58BF2"/>
<stop offset="1" stop-color="#EEA4CE"/>
</linearGradient>
</defs>
</svg>
