<svg width="174" height="37" viewBox="0 0 174 37" fill="none" xmlns="http://www.w3.org/2000/svg">
<path d="M19.3976 10.728V15.66H9.10162V20.988H16.8056V25.776H9.10162V36H2.94562V10.728H19.3976ZM25.7291 13.824C24.6491 13.824 23.7611 13.512 23.0651 12.888C22.3931 12.24 22.0571 11.448 22.0571 10.512C22.0571 9.552 22.3931 8.76 23.0651 8.136C23.7611 7.488 24.6491 7.164 25.7291 7.164C26.7851 7.164 27.6491 7.488 28.3211 8.136C29.0171 8.76 29.3651 9.552 29.3651 10.512C29.3651 11.448 29.0171 12.24 28.3211 12.888C27.6491 13.512 26.7851 13.824 25.7291 13.824ZM28.7891 15.912V36H22.6331V15.912H28.7891ZM44.4463 30.78V36H41.3143C39.0823 36 37.3423 35.46 36.0943 34.38C34.8463 33.276 34.2223 31.488 34.2223 29.016V21.024H31.7743V15.912H34.2223V11.016H40.3783V15.912H44.4103V21.024H40.3783V29.088C40.3783 29.688 40.5223 30.12 40.8103 30.384C41.0983 30.648 41.5783 30.78 42.2503 30.78H44.4463ZM60.1153 15.696C62.4673 15.696 64.3393 16.464 65.7313 18C67.1473 19.512 67.8553 21.6 67.8553 24.264V36H61.7353V25.092C61.7353 23.748 61.3873 22.704 60.6913 21.96C59.9953 21.216 59.0593 20.844 57.8833 20.844C56.7073 20.844 55.7713 21.216 55.0753 21.96C54.3793 22.704 54.0313 23.748 54.0313 25.092V36H47.8753V15.912H54.0313V18.576C54.6553 17.688 55.4953 16.992 56.5513 16.488C57.6073 15.96 58.7953 15.696 60.1153 15.696ZM91.0691 25.632C91.0691 26.208 91.0331 26.808 90.9611 27.432H77.0291C77.1251 28.68 77.5211 29.64 78.2171 30.312C78.9371 30.96 79.8131 31.284 80.8451 31.284C82.3811 31.284 83.4491 30.636 84.0491 29.34H90.6011C90.2651 30.66 89.6531 31.848 88.7651 32.904C87.9011 33.96 86.8091 34.788 85.4891 35.388C84.1691 35.988 82.6931 36.288 81.0611 36.288C79.0931 36.288 77.3411 35.868 75.8051 35.028C74.2691 34.188 73.0691 32.988 72.2051 31.428C71.3411 29.868 70.9091 28.044 70.9091 25.956C70.9091 23.868 71.3291 22.044 72.1691 20.484C73.0331 18.924 74.2331 17.724 75.7691 16.884C77.3051 16.044 79.0691 15.624 81.0611 15.624C83.0051 15.624 84.7331 16.032 86.2451 16.848C87.7571 17.664 88.9331 18.828 89.7731 20.34C90.6371 21.852 91.0691 23.616 91.0691 25.632ZM84.7691 24.012C84.7691 22.956 84.4091 22.116 83.6891 21.492C82.9691 20.868 82.0691 20.556 80.9891 20.556C79.9571 20.556 79.0811 20.856 78.3611 21.456C77.6651 22.056 77.2331 22.908 77.0651 24.012H84.7691ZM102.489 36.288C100.737 36.288 99.1767 35.988 97.8087 35.388C96.4407 34.788 95.3607 33.972 94.5687 32.94C93.7767 31.884 93.3327 30.708 93.2367 29.412H99.3207C99.3927 30.108 99.7167 30.672 100.293 31.104C100.869 31.536 101.577 31.752 102.417 31.752C103.185 31.752 103.773 31.608 104.181 31.32C104.613 31.008 104.829 30.612 104.829 30.132C104.829 29.556 104.529 29.136 103.929 28.872C103.329 28.584 102.357 28.272 101.013 27.936C99.5727 27.6 98.3727 27.252 97.4127 26.892C96.4527 26.508 95.6247 25.92 94.9287 25.128C94.2327 24.312 93.8847 23.22 93.8847 21.852C93.8847 20.7 94.1967 19.656 94.8207 18.72C95.4687 17.76 96.4047 17.004 97.6287 16.452C98.8767 15.9 100.353 15.624 102.057 15.624C104.577 15.624 106.557 16.248 107.997 17.496C109.461 18.744 110.301 20.4 110.517 22.464H104.829C104.733 21.768 104.421 21.216 103.893 20.808C103.389 20.4 102.717 20.196 101.877 20.196C101.157 20.196 100.605 20.34 100.221 20.628C99.8367 20.892 99.6447 21.264 99.6447 21.744C99.6447 22.32 99.9447 22.752 100.545 23.04C101.169 23.328 102.129 23.616 103.425 23.904C104.913 24.288 106.125 24.672 107.061 25.056C107.997 25.416 108.813 26.016 109.509 26.856C110.229 27.672 110.601 28.776 110.625 30.168C110.625 31.344 110.289 32.4 109.617 33.336C108.969 34.248 108.021 34.968 106.773 35.496C105.549 36.024 104.121 36.288 102.489 36.288ZM125.587 30.78V36H122.455C120.223 36 118.483 35.46 117.235 34.38C115.987 33.276 115.363 31.488 115.363 29.016V21.024H112.915V15.912H115.363V11.016H121.519V15.912H125.551V21.024H121.519V29.088C121.519 29.688 121.663 30.12 121.951 30.384C122.239 30.648 122.719 30.78 123.391 30.78H125.587Z" fill="#1D1617"/>
<path d="M151.384 36L144.234 25.25L137.934 36H128.234L139.484 18.15L127.984 0.899999H137.934L144.984 11.5L151.184 0.899999H160.884L149.734 18.6L161.334 36H151.384Z" fill="url(#paint0_linear_426_153)"/>
<defs>
<linearGradient id="paint0_linear_426_153" x1="316.978" y1="66.5185" x2="-47.5435" y2="-76.0927" gradientUnits="userSpaceOnUse">
<stop stop-color="#CC8FED"/>
<stop offset="1" stop-color="#9DCEFF"/>
</linearGradient>
</defs>
</svg>
