<svg width="316" height="190" viewBox="0 0 316 190" fill="none" xmlns="http://www.w3.org/2000/svg">
<path d="M290.697 132.736C291.596 132.014 292.301 131.422 292.811 130.962C293.321 130.494 293.749 130.009 294.097 129.506C294.451 128.996 294.628 128.497 294.628 128.008C294.628 127.548 294.514 127.186 294.288 126.924C294.068 126.655 293.71 126.52 293.215 126.52C292.733 126.52 292.358 126.673 292.088 126.977C291.826 127.275 291.685 127.675 291.663 128.178H290.728C290.757 127.385 290.998 126.772 291.451 126.34C291.904 125.908 292.489 125.692 293.204 125.692C293.934 125.692 294.511 125.894 294.936 126.297C295.368 126.701 295.584 127.257 295.584 127.965C295.584 128.553 295.407 129.127 295.053 129.687C294.706 130.239 294.309 130.728 293.863 131.153C293.417 131.571 292.846 132.06 292.152 132.619H295.807V133.427H290.697V132.736ZM296.925 129.591C296.925 128.373 297.123 127.424 297.52 126.744C297.917 126.057 298.611 125.713 299.602 125.713C300.587 125.713 301.278 126.057 301.674 126.744C302.071 127.424 302.269 128.373 302.269 129.591C302.269 130.831 302.071 131.794 301.674 132.481C301.278 133.168 300.587 133.512 299.602 133.512C298.611 133.512 297.917 133.168 297.52 132.481C297.123 131.794 296.925 130.831 296.925 129.591ZM301.313 129.591C301.313 128.975 301.27 128.454 301.185 128.029C301.108 127.597 300.941 127.25 300.686 126.988C300.438 126.726 300.077 126.595 299.602 126.595C299.121 126.595 298.752 126.726 298.497 126.988C298.249 127.25 298.083 127.597 297.998 128.029C297.92 128.454 297.881 128.975 297.881 129.591C297.881 130.229 297.92 130.763 297.998 131.195C298.083 131.628 298.249 131.975 298.497 132.237C298.752 132.499 299.121 132.63 299.602 132.63C300.077 132.63 300.438 132.499 300.686 132.237C300.941 131.975 301.108 131.628 301.185 131.195C301.27 130.763 301.313 130.229 301.313 129.591ZM303.384 127.562C303.384 127.08 303.529 126.698 303.82 126.414C304.11 126.124 304.482 125.979 304.935 125.979C305.389 125.979 305.761 126.124 306.051 126.414C306.341 126.698 306.487 127.08 306.487 127.562C306.487 128.05 306.341 128.44 306.051 128.73C305.761 129.014 305.389 129.155 304.935 129.155C304.482 129.155 304.11 129.014 303.82 128.73C303.529 128.44 303.384 128.05 303.384 127.562ZM309.589 126.095L305.286 133.512H304.33L308.633 126.095H309.589ZM304.935 126.574C304.695 126.574 304.503 126.659 304.362 126.829C304.227 126.992 304.16 127.236 304.16 127.562C304.16 127.888 304.227 128.135 304.362 128.305C304.503 128.475 304.695 128.56 304.935 128.56C305.176 128.56 305.367 128.475 305.509 128.305C305.651 128.128 305.722 127.88 305.722 127.562C305.722 127.236 305.651 126.992 305.509 126.829C305.367 126.659 305.176 126.574 304.935 126.574ZM307.453 132.045C307.453 131.557 307.599 131.171 307.889 130.887C308.18 130.597 308.551 130.452 309.005 130.452C309.458 130.452 309.826 130.597 310.11 130.887C310.4 131.171 310.545 131.557 310.545 132.045C310.545 132.527 310.4 132.913 310.11 133.204C309.826 133.494 309.458 133.639 309.005 133.639C308.551 133.639 308.18 133.498 307.889 133.214C307.599 132.924 307.453 132.534 307.453 132.045ZM308.994 131.057C308.753 131.057 308.562 131.142 308.42 131.312C308.279 131.475 308.208 131.72 308.208 132.045C308.208 132.364 308.279 132.609 308.42 132.779C308.562 132.942 308.753 133.023 308.994 133.023C309.235 133.023 309.426 132.942 309.568 132.779C309.71 132.609 309.78 132.364 309.78 132.045C309.78 131.72 309.71 131.475 309.568 131.312C309.426 131.142 309.235 131.057 308.994 131.057Z" fill="white"/>
<path d="M288.154 102.305V100.839L291.511 96.036H293.541V100.732H294.412V102.305H293.541V103.686H291.724V102.305H288.154ZM291.851 98.0335L290.066 100.732H291.851V98.0335ZM295.302 99.7017C295.302 98.4833 295.536 97.5235 296.003 96.8223C296.478 96.121 297.239 95.7704 298.288 95.7704C299.336 95.7704 300.094 96.121 300.561 96.8223C301.036 97.5235 301.273 98.4833 301.273 99.7017C301.273 100.934 301.036 101.901 300.561 102.602C300.094 103.304 299.336 103.654 298.288 103.654C297.239 103.654 296.478 103.304 296.003 102.602C295.536 101.901 295.302 100.934 295.302 99.7017ZM299.488 99.7017C299.488 98.9862 299.41 98.4373 299.254 98.0548C299.099 97.6652 298.776 97.4704 298.288 97.4704C297.799 97.4704 297.477 97.6652 297.321 98.0548C297.165 98.4373 297.087 98.9862 297.087 99.7017C297.087 100.183 297.115 100.584 297.172 100.902C297.229 101.214 297.342 101.469 297.512 101.667C297.689 101.859 297.948 101.954 298.288 101.954C298.628 101.954 298.883 101.859 299.053 101.667C299.23 101.469 299.347 101.214 299.403 100.902C299.46 100.584 299.488 100.183 299.488 99.7017ZM302.084 97.8848C302.084 97.311 302.247 96.8683 302.573 96.5567C302.906 96.245 303.335 96.0892 303.859 96.0892C304.383 96.0892 304.808 96.245 305.134 96.5567C305.46 96.8683 305.623 97.311 305.623 97.8848C305.623 98.4585 305.46 98.9012 305.134 99.2129C304.808 99.5246 304.383 99.6804 303.859 99.6804C303.335 99.6804 302.906 99.5246 302.573 99.2129C302.247 98.9012 302.084 98.4585 302.084 97.8848ZM309.299 96.206L305.208 103.686H303.455L307.546 96.206H309.299ZM303.848 97.1517C303.508 97.1517 303.338 97.396 303.338 97.8848C303.338 98.3665 303.508 98.6073 303.848 98.6073C304.011 98.6073 304.139 98.5471 304.231 98.4267C304.323 98.3062 304.369 98.1256 304.369 97.8848C304.369 97.396 304.195 97.1517 303.848 97.1517ZM307.142 102.007C307.142 101.434 307.305 100.991 307.631 100.679C307.956 100.367 308.381 100.212 308.906 100.212C309.43 100.212 309.855 100.367 310.181 100.679C310.506 100.991 310.669 101.434 310.669 102.007C310.669 102.581 310.506 103.024 310.181 103.335C309.855 103.647 309.43 103.803 308.906 103.803C308.381 103.803 307.956 103.647 307.631 103.335C307.305 103.024 307.142 102.581 307.142 102.007ZM308.895 101.274C308.732 101.274 308.605 101.334 308.513 101.455C308.428 101.575 308.385 101.759 308.385 102.007C308.385 102.489 308.555 102.73 308.895 102.73C309.058 102.73 309.185 102.67 309.278 102.549C309.37 102.429 309.416 102.248 309.416 102.007C309.416 101.766 309.37 101.586 309.278 101.465C309.185 101.338 309.058 101.274 308.895 101.274Z" fill="white"/>
<path d="M294.462 66.9015C294.307 66.1152 293.821 65.7221 293.007 65.7221C292.376 65.7221 291.905 65.9665 291.594 66.4552C291.282 66.9369 291.13 67.7338 291.137 68.8459C291.3 68.4775 291.569 68.1907 291.944 67.9852C292.327 67.7727 292.752 67.6665 293.219 67.6665C293.949 67.6665 294.53 67.8932 294.962 68.3465C295.401 68.7998 295.62 69.4267 295.62 70.2271C295.62 70.7088 295.525 71.1409 295.334 71.5234C295.149 71.9059 294.866 72.2104 294.484 72.4371C294.108 72.6638 293.651 72.7771 293.113 72.7771C292.383 72.7771 291.813 72.6142 291.402 72.2884C290.992 71.9625 290.705 71.5127 290.542 70.939C290.379 70.3652 290.297 69.6569 290.297 68.814C290.297 66.2144 291.204 64.9146 293.017 64.9146C293.712 64.9146 294.257 65.1023 294.654 65.4777C295.05 65.8532 295.284 66.3277 295.355 66.9015H294.462ZM293.017 68.4846C292.713 68.4846 292.426 68.5484 292.157 68.6759C291.888 68.7963 291.668 68.984 291.498 69.239C291.335 69.4869 291.254 69.7915 291.254 70.1527C291.254 70.6911 291.409 71.1302 291.721 71.4702C292.033 71.8032 292.479 71.9696 293.06 71.9696C293.556 71.9696 293.949 71.8173 294.239 71.5127C294.537 71.2011 294.685 70.7832 294.685 70.259C294.685 69.7065 294.544 69.2744 294.26 68.9627C293.977 68.644 293.563 68.4846 293.017 68.4846ZM296.925 68.8352C296.925 67.6169 297.123 66.6677 297.52 65.9877C297.917 65.3007 298.611 64.9571 299.602 64.9571C300.587 64.9571 301.278 65.3007 301.674 65.9877C302.071 66.6677 302.269 67.6169 302.269 68.8352C302.269 70.0748 302.071 71.0382 301.674 71.7252C301.278 72.4123 300.587 72.7559 299.602 72.7559C298.611 72.7559 297.917 72.4123 297.52 71.7252C297.123 71.0382 296.925 70.0748 296.925 68.8352ZM301.313 68.8352C301.313 68.219 301.27 67.6984 301.185 67.2734C301.108 66.8413 300.941 66.4942 300.686 66.2321C300.438 65.97 300.077 65.839 299.602 65.839C299.121 65.839 298.752 65.97 298.497 66.2321C298.249 66.4942 298.083 66.8413 297.998 67.2734C297.92 67.6984 297.881 68.219 297.881 68.8352C297.881 69.4727 297.92 70.0075 297.998 70.4396C298.083 70.8717 298.249 71.2188 298.497 71.4809C298.752 71.7429 299.121 71.874 299.602 71.874C300.077 71.874 300.438 71.7429 300.686 71.4809C300.941 71.2188 301.108 70.8717 301.185 70.4396C301.27 70.0075 301.313 69.4727 301.313 68.8352ZM303.384 66.8059C303.384 66.3242 303.529 65.9417 303.82 65.6584C304.11 65.3679 304.482 65.2227 304.935 65.2227C305.389 65.2227 305.761 65.3679 306.051 65.6584C306.341 65.9417 306.487 66.3242 306.487 66.8059C306.487 67.2946 306.341 67.6842 306.051 67.9746C305.761 68.2579 305.389 68.3996 304.935 68.3996C304.482 68.3996 304.11 68.2579 303.82 67.9746C303.529 67.6842 303.384 67.2946 303.384 66.8059ZM309.589 65.3396L305.286 72.7559H304.33L308.633 65.3396H309.589ZM304.935 65.8177C304.695 65.8177 304.503 65.9027 304.362 66.0727C304.227 66.2357 304.16 66.48 304.16 66.8059C304.16 67.1317 304.227 67.3796 304.362 67.5496C304.503 67.7196 304.695 67.8046 304.935 67.8046C305.176 67.8046 305.367 67.7196 305.509 67.5496C305.651 67.3725 305.722 67.1246 305.722 66.8059C305.722 66.48 305.651 66.2357 305.509 66.0727C305.367 65.9027 305.176 65.8177 304.935 65.8177ZM307.453 71.2896C307.453 70.8009 307.599 70.4148 307.889 70.1315C308.18 69.8411 308.551 69.6959 309.005 69.6959C309.458 69.6959 309.826 69.8411 310.11 70.1315C310.4 70.4148 310.545 70.8009 310.545 71.2896C310.545 71.7713 310.4 72.1573 310.11 72.4477C309.826 72.7382 309.458 72.8834 309.005 72.8834C308.551 72.8834 308.18 72.7417 307.889 72.4584C307.599 72.1679 307.453 71.7784 307.453 71.2896ZM308.994 70.3015C308.753 70.3015 308.562 70.3865 308.42 70.5565C308.279 70.7194 308.208 70.9638 308.208 71.2896C308.208 71.6084 308.279 71.8527 308.42 72.0227C308.562 72.1857 308.753 72.2671 308.994 72.2671C309.235 72.2671 309.426 72.1857 309.568 72.0227C309.71 71.8527 309.78 71.6084 309.78 71.2896C309.78 70.9638 309.71 70.7194 309.568 70.5565C309.426 70.3865 309.235 70.3015 308.994 70.3015Z" fill="white"/>
<path d="M291.624 38.9352C291.228 38.7793 290.923 38.5527 290.711 38.2552C290.498 37.9577 290.392 37.5964 290.392 37.1714C290.392 36.7889 290.488 36.4454 290.679 36.1408C290.87 35.8291 291.153 35.5848 291.529 35.4077C291.911 35.2235 292.372 35.1314 292.91 35.1314C293.448 35.1314 293.905 35.2235 294.281 35.4077C294.663 35.5848 294.95 35.8291 295.141 36.1408C295.34 36.4454 295.439 36.7889 295.439 37.1714C295.439 37.5823 295.329 37.9435 295.109 38.2552C294.89 38.5598 294.589 38.7864 294.206 38.9352C294.646 39.0698 294.993 39.3071 295.248 39.6471C295.51 39.98 295.641 40.3837 295.641 40.8583C295.641 41.3187 295.527 41.7225 295.301 42.0696C295.074 42.4096 294.752 42.6752 294.334 42.8664C293.923 43.0506 293.448 43.1427 292.91 43.1427C292.372 43.1427 291.897 43.0506 291.486 42.8664C291.083 42.6752 290.767 42.4096 290.541 42.0696C290.314 41.7225 290.201 41.3187 290.201 40.8583C290.201 40.3837 290.328 39.9764 290.583 39.6364C290.838 39.2964 291.185 39.0627 291.624 38.9352ZM294.504 37.2883C294.504 36.8562 294.362 36.5233 294.079 36.2896C293.796 36.0558 293.406 35.9389 292.91 35.9389C292.421 35.9389 292.035 36.0558 291.752 36.2896C291.469 36.5233 291.327 36.8598 291.327 37.2989C291.327 37.6956 291.472 38.0143 291.763 38.2552C292.06 38.496 292.443 38.6164 292.91 38.6164C293.385 38.6164 293.767 38.496 294.058 38.2552C294.355 38.0073 294.504 37.685 294.504 37.2883ZM292.91 39.3602C292.386 39.3602 291.957 39.4841 291.624 39.7321C291.292 39.9729 291.125 40.3377 291.125 40.8264C291.125 41.2798 291.284 41.6446 291.603 41.9208C291.929 42.1971 292.365 42.3352 292.91 42.3352C293.456 42.3352 293.888 42.1971 294.206 41.9208C294.525 41.6446 294.684 41.2798 294.684 40.8264C294.684 40.3518 294.522 39.9906 294.196 39.7427C293.87 39.4877 293.441 39.3602 292.91 39.3602ZM296.925 39.0096C296.925 37.7912 297.123 36.8421 297.52 36.1621C297.917 35.475 298.611 35.1314 299.602 35.1314C300.587 35.1314 301.278 35.475 301.674 36.1621C302.071 36.8421 302.269 37.7912 302.269 39.0096C302.269 40.2491 302.071 41.2125 301.674 41.8996C301.278 42.5866 300.587 42.9302 299.602 42.9302C298.611 42.9302 297.917 42.5866 297.52 41.8996C297.123 41.2125 296.925 40.2491 296.925 39.0096ZM301.313 39.0096C301.313 38.3933 301.27 37.8727 301.185 37.4477C301.108 37.0156 300.941 36.6685 300.686 36.4064C300.438 36.1443 300.077 36.0133 299.602 36.0133C299.121 36.0133 298.752 36.1443 298.497 36.4064C298.249 36.6685 298.083 37.0156 297.998 37.4477C297.92 37.8727 297.881 38.3933 297.881 39.0096C297.881 39.6471 297.92 40.1818 297.998 40.6139C298.083 41.046 298.249 41.3931 298.497 41.6552C298.752 41.9173 299.121 42.0483 299.602 42.0483C300.077 42.0483 300.438 41.9173 300.686 41.6552C300.941 41.3931 301.108 41.046 301.185 40.6139C301.27 40.1818 301.313 39.6471 301.313 39.0096ZM303.384 36.9802C303.384 36.4985 303.529 36.116 303.82 35.8327C304.11 35.5423 304.482 35.3971 304.935 35.3971C305.389 35.3971 305.761 35.5423 306.051 35.8327C306.341 36.116 306.487 36.4985 306.487 36.9802C306.487 37.4689 306.341 37.8585 306.051 38.1489C305.761 38.4323 305.389 38.5739 304.935 38.5739C304.482 38.5739 304.11 38.4323 303.82 38.1489C303.529 37.8585 303.384 37.4689 303.384 36.9802ZM309.589 35.5139L305.286 42.9302H304.33L308.633 35.5139H309.589ZM304.935 35.9921C304.695 35.9921 304.503 36.0771 304.362 36.2471C304.227 36.41 304.16 36.6543 304.16 36.9802C304.16 37.306 304.227 37.5539 304.362 37.7239C304.503 37.8939 304.695 37.9789 304.935 37.9789C305.176 37.9789 305.367 37.8939 305.509 37.7239C305.651 37.5468 305.722 37.2989 305.722 36.9802C305.722 36.6543 305.651 36.41 305.509 36.2471C305.367 36.0771 305.176 35.9921 304.935 35.9921ZM307.453 41.4639C307.453 40.9752 307.599 40.5891 307.889 40.3058C308.18 40.0154 308.551 39.8702 309.005 39.8702C309.458 39.8702 309.826 40.0154 310.11 40.3058C310.4 40.5891 310.545 40.9752 310.545 41.4639C310.545 41.9456 310.4 42.3316 310.11 42.6221C309.826 42.9125 309.458 43.0577 309.005 43.0577C308.551 43.0577 308.18 42.916 307.889 42.6327C307.599 42.3423 307.453 41.9527 307.453 41.4639ZM308.994 40.4758C308.753 40.4758 308.562 40.5608 308.42 40.7308C308.279 40.8937 308.208 41.1381 308.208 41.4639C308.208 41.7827 308.279 42.0271 308.42 42.1971C308.562 42.36 308.753 42.4414 308.994 42.4414C309.235 42.4414 309.426 42.36 309.568 42.1971C309.71 42.0271 309.78 41.7827 309.78 41.4639C309.78 41.1381 309.71 40.8937 309.568 40.7308C309.426 40.5608 309.235 40.4758 308.994 40.4758Z" fill="white"/>
<path d="M291.595 5.2V4.31812H293.592V12H292.615V5.2H291.595ZM295.253 8.07937C295.253 6.86104 295.451 5.91187 295.848 5.23187C296.245 4.54479 296.939 4.20125 297.931 4.20125C298.915 4.20125 299.606 4.54479 300.002 5.23187C300.399 5.91187 300.597 6.86104 300.597 8.07937C300.597 9.31896 300.399 10.2823 300.002 10.9694C299.606 11.6565 298.915 12 297.931 12C296.939 12 296.245 11.6565 295.848 10.9694C295.451 10.2823 295.253 9.31896 295.253 8.07937ZM299.641 8.07937C299.641 7.46312 299.599 6.9425 299.514 6.5175C299.436 6.08542 299.269 5.73833 299.014 5.47625C298.766 5.21417 298.405 5.08312 297.931 5.08312C297.449 5.08312 297.081 5.21417 296.826 5.47625C296.578 5.73833 296.411 6.08542 296.326 6.5175C296.248 6.9425 296.209 7.46312 296.209 8.07937C296.209 8.71687 296.248 9.25167 296.326 9.68375C296.411 10.1158 296.578 10.4629 296.826 10.725C297.081 10.9871 297.449 11.1181 297.931 11.1181C298.405 11.1181 298.766 10.9871 299.014 10.725C299.269 10.4629 299.436 10.1158 299.514 9.68375C299.599 9.25167 299.641 8.71687 299.641 8.07937ZM301.925 8.07937C301.925 6.86104 302.123 5.91187 302.52 5.23187C302.917 4.54479 303.611 4.20125 304.602 4.20125C305.587 4.20125 306.278 4.54479 306.674 5.23187C307.071 5.91187 307.269 6.86104 307.269 8.07937C307.269 9.31896 307.071 10.2823 306.674 10.9694C306.278 11.6565 305.587 12 304.602 12C303.611 12 302.917 11.6565 302.52 10.9694C302.123 10.2823 301.925 9.31896 301.925 8.07937ZM306.313 8.07937C306.313 7.46312 306.27 6.9425 306.185 6.5175C306.108 6.08542 305.941 5.73833 305.686 5.47625C305.438 5.21417 305.077 5.08312 304.602 5.08312C304.121 5.08312 303.752 5.21417 303.497 5.47625C303.249 5.73833 303.083 6.08542 302.998 6.5175C302.92 6.9425 302.881 7.46312 302.881 8.07937C302.881 8.71687 302.92 9.25167 302.998 9.68375C303.083 10.1158 303.249 10.4629 303.497 10.725C303.752 10.9871 304.121 11.1181 304.602 11.1181C305.077 11.1181 305.438 10.9871 305.686 10.725C305.941 10.4629 306.108 10.1158 306.185 9.68375C306.27 9.25167 306.313 8.71687 306.313 8.07937ZM308.384 6.05C308.384 5.56833 308.529 5.18583 308.82 4.9025C309.11 4.61208 309.482 4.46687 309.935 4.46687C310.389 4.46687 310.761 4.61208 311.051 4.9025C311.341 5.18583 311.487 5.56833 311.487 6.05C311.487 6.53875 311.341 6.92833 311.051 7.21875C310.761 7.50208 310.389 7.64375 309.935 7.64375C309.482 7.64375 309.11 7.50208 308.82 7.21875C308.529 6.92833 308.384 6.53875 308.384 6.05ZM314.589 4.58375L310.286 12H309.33L313.633 4.58375H314.589ZM309.935 5.06187C309.695 5.06187 309.503 5.14687 309.362 5.31687C309.227 5.47979 309.16 5.72417 309.16 6.05C309.16 6.37583 309.227 6.62375 309.362 6.79375C309.503 6.96375 309.695 7.04875 309.935 7.04875C310.176 7.04875 310.367 6.96375 310.509 6.79375C310.651 6.61667 310.722 6.36875 310.722 6.05C310.722 5.72417 310.651 5.47979 310.509 5.31687C310.367 5.14687 310.176 5.06187 309.935 5.06187ZM312.453 10.5337C312.453 10.045 312.599 9.65896 312.889 9.37562C313.18 9.08521 313.551 8.94 314.005 8.94C314.458 8.94 314.826 9.08521 315.11 9.37562C315.4 9.65896 315.545 10.045 315.545 10.5337C315.545 11.0154 315.4 11.4015 315.11 11.6919C314.826 11.9823 314.458 12.1275 314.005 12.1275C313.551 12.1275 313.18 11.9858 312.889 11.7025C312.599 11.4121 312.453 11.0225 312.453 10.5337ZM313.994 9.54562C313.753 9.54562 313.562 9.63062 313.42 9.80062C313.279 9.96354 313.208 10.2079 313.208 10.5337C313.208 10.8525 313.279 11.0969 313.42 11.2669C313.562 11.4298 313.753 11.5112 313.994 11.5112C314.235 11.5112 314.426 11.4298 314.568 11.2669C314.71 11.0969 314.78 10.8525 314.78 10.5337C314.78 10.2079 314.71 9.96354 314.568 9.80062C314.426 9.63062 314.235 9.54562 313.994 9.54562Z" fill="white"/>
<path d="M290.925 160.521C290.925 159.303 291.123 158.354 291.52 157.674C291.917 156.987 292.611 156.643 293.602 156.643C294.587 156.643 295.278 156.987 295.674 157.674C296.071 158.354 296.269 159.303 296.269 160.521C296.269 161.761 296.071 162.724 295.674 163.411C295.278 164.098 294.587 164.442 293.602 164.442C292.611 164.442 291.917 164.098 291.52 163.411C291.123 162.724 290.925 161.761 290.925 160.521ZM295.313 160.521C295.313 159.905 295.27 159.384 295.185 158.959C295.108 158.527 294.941 158.18 294.686 157.918C294.438 157.656 294.077 157.525 293.602 157.525C293.121 157.525 292.752 157.656 292.497 157.918C292.249 158.18 292.083 158.527 291.998 158.959C291.92 159.384 291.881 159.905 291.881 160.521C291.881 161.159 291.92 161.694 291.998 162.126C292.083 162.558 292.249 162.905 292.497 163.167C292.752 163.429 293.121 163.56 293.602 163.56C294.077 163.56 294.438 163.429 294.686 163.167C294.941 162.905 295.108 162.558 295.185 162.126C295.27 161.694 295.313 161.159 295.313 160.521ZM297.384 158.492C297.384 158.01 297.529 157.628 297.82 157.344C298.11 157.054 298.482 156.909 298.935 156.909C299.389 156.909 299.761 157.054 300.051 157.344C300.341 157.628 300.487 158.01 300.487 158.492C300.487 158.981 300.341 159.37 300.051 159.661C299.761 159.944 299.389 160.086 298.935 160.086C298.482 160.086 298.11 159.944 297.82 159.661C297.529 159.37 297.384 158.981 297.384 158.492ZM303.589 157.026L299.286 164.442H298.33L302.633 157.026H303.589ZM298.935 157.504C298.695 157.504 298.503 157.589 298.362 157.759C298.227 157.922 298.16 158.166 298.16 158.492C298.16 158.818 298.227 159.066 298.362 159.236C298.503 159.406 298.695 159.491 298.935 159.491C299.176 159.491 299.367 159.406 299.509 159.236C299.651 159.059 299.722 158.811 299.722 158.492C299.722 158.166 299.651 157.922 299.509 157.759C299.367 157.589 299.176 157.504 298.935 157.504ZM301.453 162.976C301.453 162.487 301.599 162.101 301.889 161.818C302.18 161.527 302.551 161.382 303.005 161.382C303.458 161.382 303.826 161.527 304.11 161.818C304.4 162.101 304.545 162.487 304.545 162.976C304.545 163.457 304.4 163.843 304.11 164.134C303.826 164.424 303.458 164.569 303.005 164.569C302.551 164.569 302.18 164.428 301.889 164.144C301.599 163.854 301.453 163.464 301.453 162.976ZM302.994 161.988C302.753 161.988 302.562 162.073 302.42 162.243C302.279 162.405 302.208 162.65 302.208 162.976C302.208 163.294 302.279 163.539 302.42 163.709C302.562 163.872 302.753 163.953 302.994 163.953C303.235 163.953 303.426 163.872 303.568 163.709C303.71 163.539 303.78 163.294 303.78 162.976C303.78 162.65 303.71 162.405 303.568 162.243C303.426 162.073 303.235 161.988 302.994 161.988Z" fill="white"/>
<g opacity="0.3">
<line x1="1" y1="8.2374" x2="284" y2="8.2374" stroke="#F7F8F8" stroke-width="1.2"/>
<line x1="1" y1="39.1676" x2="284" y2="39.1676" stroke="#F7F8F8" stroke-width="1.2"/>
<line x1="1" y1="68.9933" x2="284" y2="68.9933" stroke="#F7F8F8" stroke-width="1.2"/>
<line x1="1" y1="98.8189" x2="284" y2="98.8189" stroke="#F7F8F8" stroke-width="1.2"/>
<line x1="1" y1="129.749" x2="284" y2="129.749" stroke="#F7F8F8" stroke-width="1.2"/>
<line x1="1" y1="159.575" x2="284" y2="159.575" stroke="#F7F8F8" stroke-width="1.2"/>
</g>
<path d="M8.576 183.2C8.024 183.2 7.528 183.104 7.088 182.912C6.656 182.712 6.316 182.44 6.068 182.096C5.82 181.744 5.692 181.34 5.684 180.884H6.848C6.888 181.276 7.048 181.608 7.328 181.88C7.616 182.144 8.032 182.276 8.576 182.276C9.096 182.276 9.504 182.148 9.8 181.892C10.104 181.628 10.256 181.292 10.256 180.884C10.256 180.564 10.168 180.304 9.992 180.104C9.816 179.904 9.596 179.752 9.332 179.648C9.068 179.544 8.712 179.432 8.264 179.312C7.712 179.168 7.268 179.024 6.932 178.88C6.604 178.736 6.32 178.512 6.08 178.208C5.848 177.896 5.732 177.48 5.732 176.96C5.732 176.504 5.848 176.1 6.08 175.748C6.312 175.396 6.636 175.124 7.052 174.932C7.476 174.74 7.96 174.644 8.504 174.644C9.288 174.644 9.928 174.84 10.424 175.232C10.928 175.624 11.212 176.144 11.276 176.792H10.076C10.036 176.472 9.868 176.192 9.572 175.952C9.276 175.704 8.884 175.58 8.396 175.58C7.94 175.58 7.568 175.7 7.28 175.94C6.992 176.172 6.848 176.5 6.848 176.924C6.848 177.228 6.932 177.476 7.1 177.668C7.276 177.86 7.488 178.008 7.736 178.112C7.992 178.208 8.348 178.32 8.804 178.448C9.356 178.6 9.8 178.752 10.136 178.904C10.472 179.048 10.76 179.276 11 179.588C11.24 179.892 11.36 180.308 11.36 180.836C11.36 181.244 11.252 181.628 11.036 181.988C10.82 182.348 10.5 182.64 10.076 182.864C9.652 183.088 9.152 183.2 8.576 183.2ZM18.799 176.54V183.116H17.707V182.144C17.499 182.48 17.207 182.744 16.831 182.936C16.463 183.12 16.055 183.212 15.607 183.212C15.095 183.212 14.635 183.108 14.227 182.9C13.819 182.684 13.495 182.364 13.255 181.94C13.023 181.516 12.907 181 12.907 180.392V176.54H13.987V180.248C13.987 180.896 14.151 181.396 14.479 181.748C14.807 182.092 15.255 182.264 15.823 182.264C16.407 182.264 16.867 182.084 17.203 181.724C17.539 181.364 17.707 180.84 17.707 180.152V176.54H18.799ZM23.8468 176.42C24.6468 176.42 25.2948 176.664 25.7908 177.152C26.2868 177.632 26.5348 178.328 26.5348 179.24V183.116H25.4548V179.396C25.4548 178.74 25.2908 178.24 24.9628 177.896C24.6348 177.544 24.1868 177.368 23.6188 177.368C23.0428 177.368 22.5828 177.548 22.2388 177.908C21.9028 178.268 21.7348 178.792 21.7348 179.48V183.116H20.6428V176.54H21.7348V177.476C21.9508 177.14 22.2428 176.88 22.6108 176.696C22.9868 176.512 23.3988 176.42 23.8468 176.42Z" fill="white"/>
<path d="M57.408 174.812V183.116H56.316V176.924L53.556 183.116H52.788L50.016 176.912V183.116H48.924V174.812H50.1L53.172 181.676L56.244 174.812H57.408ZM62.1279 183.224C61.5119 183.224 60.9519 183.084 60.4479 182.804C59.9519 182.524 59.5599 182.128 59.2719 181.616C58.9919 181.096 58.8519 180.496 58.8519 179.816C58.8519 179.144 58.9959 178.552 59.2839 178.04C59.5799 177.52 59.9799 177.124 60.4839 176.852C60.9879 176.572 61.5519 176.432 62.1759 176.432C62.7999 176.432 63.3639 176.572 63.8679 176.852C64.3719 177.124 64.7679 177.516 65.0559 178.028C65.3519 178.54 65.4999 179.136 65.4999 179.816C65.4999 180.496 65.3479 181.096 65.0439 181.616C64.7479 182.128 64.3439 182.524 63.8319 182.804C63.3199 183.084 62.7519 183.224 62.1279 183.224ZM62.1279 182.264C62.5199 182.264 62.8879 182.172 63.2319 181.988C63.5759 181.804 63.8519 181.528 64.0599 181.16C64.2759 180.792 64.3839 180.344 64.3839 179.816C64.3839 179.288 64.2799 178.84 64.0719 178.472C63.8639 178.104 63.5919 177.832 63.2559 177.656C62.9199 177.472 62.5559 177.38 62.1639 177.38C61.7639 177.38 61.3959 177.472 61.0599 177.656C60.7319 177.832 60.4679 178.104 60.2679 178.472C60.0679 178.84 59.9679 179.288 59.9679 179.816C59.9679 180.352 60.0639 180.804 60.2559 181.172C60.4559 181.54 60.7199 181.816 61.0479 182C61.3759 182.176 61.7359 182.264 62.1279 182.264ZM70.1397 176.42C70.9397 176.42 71.5877 176.664 72.0837 177.152C72.5797 177.632 72.8277 178.328 72.8277 179.24V183.116H71.7477V179.396C71.7477 178.74 71.5837 178.24 71.2557 177.896C70.9277 177.544 70.4797 177.368 69.9117 177.368C69.3357 177.368 68.8757 177.548 68.5317 177.908C68.1957 178.268 68.0277 178.792 68.0277 179.48V183.116H66.9357V176.54H68.0277V177.476C68.2437 177.14 68.5357 176.88 68.9037 176.696C69.2797 176.512 69.6917 176.42 70.1397 176.42Z" fill="white"/>
<path d="M100.072 174.752V175.64H97.792V183.116H96.7V175.64H94.408V174.752H100.072ZM107.248 176.54V183.116H106.156V182.144C105.948 182.48 105.656 182.744 105.28 182.936C104.912 183.12 104.504 183.212 104.056 183.212C103.544 183.212 103.084 183.108 102.676 182.9C102.268 182.684 101.944 182.364 101.704 181.94C101.472 181.516 101.356 181 101.356 180.392V176.54H102.436V180.248C102.436 180.896 102.6 181.396 102.928 181.748C103.256 182.092 103.704 182.264 104.272 182.264C104.856 182.264 105.316 182.084 105.652 181.724C105.988 181.364 106.156 180.84 106.156 180.152V176.54H107.248ZM115.092 179.576C115.092 179.784 115.08 180.004 115.056 180.236H109.8C109.84 180.884 110.06 181.392 110.46 181.76C110.868 182.12 111.36 182.3 111.936 182.3C112.408 182.3 112.8 182.192 113.112 181.976C113.432 181.752 113.656 181.456 113.784 181.088H114.96C114.784 181.72 114.432 182.236 113.904 182.636C113.376 183.028 112.72 183.224 111.936 183.224C111.312 183.224 110.752 183.084 110.256 182.804C109.768 182.524 109.384 182.128 109.104 181.616C108.824 181.096 108.684 180.496 108.684 179.816C108.684 179.136 108.82 178.54 109.092 178.028C109.364 177.516 109.744 177.124 110.232 176.852C110.728 176.572 111.296 176.432 111.936 176.432C112.56 176.432 113.112 176.568 113.592 176.84C114.072 177.112 114.44 177.488 114.696 177.968C114.96 178.44 115.092 178.976 115.092 179.576ZM113.964 179.348C113.964 178.932 113.872 178.576 113.688 178.28C113.504 177.976 113.252 177.748 112.932 177.596C112.62 177.436 112.272 177.356 111.888 177.356C111.336 177.356 110.864 177.532 110.472 177.884C110.088 178.236 109.868 178.724 109.812 179.348H113.964Z" fill="white"/>
<path d="M147.436 174.752L145.012 183.116H143.788L141.844 176.384L139.828 183.116L138.616 183.128L136.276 174.752H137.44L139.264 181.844L141.28 174.752H142.504L144.424 181.82L146.26 174.752H147.436ZM154.631 179.576C154.631 179.784 154.619 180.004 154.595 180.236H149.339C149.379 180.884 149.599 181.392 149.999 181.76C150.407 182.12 150.899 182.3 151.475 182.3C151.947 182.3 152.339 182.192 152.651 181.976C152.971 181.752 153.195 181.456 153.323 181.088H154.499C154.323 181.72 153.971 182.236 153.443 182.636C152.915 183.028 152.259 183.224 151.475 183.224C150.851 183.224 150.291 183.084 149.795 182.804C149.307 182.524 148.923 182.128 148.643 181.616C148.363 181.096 148.223 180.496 148.223 179.816C148.223 179.136 148.359 178.54 148.631 178.028C148.903 177.516 149.283 177.124 149.771 176.852C150.267 176.572 150.835 176.432 151.475 176.432C152.099 176.432 152.651 176.568 153.131 176.84C153.611 177.112 153.979 177.488 154.235 177.968C154.499 178.44 154.631 178.976 154.631 179.576ZM153.503 179.348C153.503 178.932 153.411 178.576 153.227 178.28C153.043 177.976 152.791 177.748 152.471 177.596C152.159 177.436 151.811 177.356 151.427 177.356C150.875 177.356 150.403 177.532 150.011 177.884C149.627 178.236 149.407 178.724 149.351 179.348H153.503ZM155.664 179.804C155.664 179.132 155.8 178.544 156.072 178.04C156.344 177.528 156.716 177.132 157.188 176.852C157.668 176.572 158.204 176.432 158.796 176.432C159.308 176.432 159.784 176.552 160.224 176.792C160.664 177.024 161 177.332 161.232 177.716V174.236H162.336V183.116H161.232V181.88C161.016 182.272 160.696 182.596 160.272 182.852C159.848 183.1 159.352 183.224 158.784 183.224C158.2 183.224 157.668 183.08 157.188 182.792C156.716 182.504 156.344 182.1 156.072 181.58C155.8 181.06 155.664 180.468 155.664 179.804ZM161.232 179.816C161.232 179.32 161.132 178.888 160.932 178.52C160.732 178.152 160.46 177.872 160.116 177.68C159.78 177.48 159.408 177.38 159 177.38C158.592 177.38 158.22 177.476 157.884 177.668C157.548 177.86 157.28 178.14 157.08 178.508C156.88 178.876 156.78 179.308 156.78 179.804C156.78 180.308 156.88 180.748 157.08 181.124C157.28 181.492 157.548 181.776 157.884 181.976C158.22 182.168 158.592 182.264 159 182.264C159.408 182.264 159.78 182.168 160.116 181.976C160.46 181.776 160.732 181.492 160.932 181.124C161.132 180.748 161.232 180.312 161.232 179.816Z" fill="white"/>
<path d="M190.072 174.752V175.64H187.792V183.116H186.7V175.64H184.408V174.752H190.072ZM194.68 176.42C195.176 176.42 195.624 176.528 196.024 176.744C196.424 176.952 196.736 177.268 196.96 177.692C197.192 178.116 197.308 178.632 197.308 179.24V183.116H196.228V179.396C196.228 178.74 196.064 178.24 195.736 177.896C195.408 177.544 194.96 177.368 194.392 177.368C193.816 177.368 193.356 177.548 193.012 177.908C192.676 178.268 192.508 178.792 192.508 179.48V183.116H191.416V174.236H192.508V177.476C192.724 177.14 193.02 176.88 193.396 176.696C193.78 176.512 194.208 176.42 194.68 176.42ZM204.924 176.54V183.116H203.832V182.144C203.624 182.48 203.332 182.744 202.956 182.936C202.588 183.12 202.18 183.212 201.732 183.212C201.22 183.212 200.76 183.108 200.352 182.9C199.944 182.684 199.62 182.364 199.38 181.94C199.148 181.516 199.032 181 199.032 180.392V176.54H200.112V180.248C200.112 180.896 200.276 181.396 200.604 181.748C200.932 182.092 201.38 182.264 201.948 182.264C202.532 182.264 202.992 182.084 203.328 181.724C203.664 181.364 203.832 180.84 203.832 180.152V176.54H204.924Z" fill="white"/>
<path d="M231.228 174.692V176.336H227.796V178.112H230.364V179.708H227.796V183.116H225.744V174.692H231.228ZM234.359 177.536C234.599 177.168 234.899 176.88 235.259 176.672C235.619 176.456 236.019 176.348 236.459 176.348V178.52H235.895C235.383 178.52 234.999 178.632 234.743 178.856C234.487 179.072 234.359 179.456 234.359 180.008V183.116H232.307V176.42H234.359V177.536ZM238.471 175.724C238.111 175.724 237.815 175.62 237.583 175.412C237.359 175.196 237.247 174.932 237.247 174.62C237.247 174.3 237.359 174.036 237.583 173.828C237.815 173.612 238.111 173.504 238.471 173.504C238.823 173.504 239.111 173.612 239.335 173.828C239.567 174.036 239.683 174.3 239.683 174.62C239.683 174.932 239.567 175.196 239.335 175.412C239.111 175.62 238.823 175.724 238.471 175.724ZM239.491 176.42V183.116H237.439V176.42H239.491Z" fill="white"/>
<path d="M263.576 183.2C263.024 183.2 262.528 183.104 262.088 182.912C261.656 182.712 261.316 182.44 261.068 182.096C260.82 181.744 260.692 181.34 260.684 180.884H261.848C261.888 181.276 262.048 181.608 262.328 181.88C262.616 182.144 263.032 182.276 263.576 182.276C264.096 182.276 264.504 182.148 264.8 181.892C265.104 181.628 265.256 181.292 265.256 180.884C265.256 180.564 265.168 180.304 264.992 180.104C264.816 179.904 264.596 179.752 264.332 179.648C264.068 179.544 263.712 179.432 263.264 179.312C262.712 179.168 262.268 179.024 261.932 178.88C261.604 178.736 261.32 178.512 261.08 178.208C260.848 177.896 260.732 177.48 260.732 176.96C260.732 176.504 260.848 176.1 261.08 175.748C261.312 175.396 261.636 175.124 262.052 174.932C262.476 174.74 262.96 174.644 263.504 174.644C264.288 174.644 264.928 174.84 265.424 175.232C265.928 175.624 266.212 176.144 266.276 176.792H265.076C265.036 176.472 264.868 176.192 264.572 175.952C264.276 175.704 263.884 175.58 263.396 175.58C262.94 175.58 262.568 175.7 262.28 175.94C261.992 176.172 261.848 176.5 261.848 176.924C261.848 177.228 261.932 177.476 262.1 177.668C262.276 177.86 262.488 178.008 262.736 178.112C262.992 178.208 263.348 178.32 263.804 178.448C264.356 178.6 264.8 178.752 265.136 178.904C265.472 179.048 265.76 179.276 266 179.588C266.24 179.892 266.36 180.308 266.36 180.836C266.36 181.244 266.252 181.628 266.036 181.988C265.82 182.348 265.5 182.64 265.076 182.864C264.652 183.088 264.152 183.2 263.576 183.2ZM267.559 179.804C267.559 179.132 267.695 178.544 267.967 178.04C268.239 177.528 268.611 177.132 269.083 176.852C269.563 176.572 270.095 176.432 270.679 176.432C271.255 176.432 271.755 176.556 272.179 176.804C272.603 177.052 272.919 177.364 273.127 177.74V176.54H274.231V183.116H273.127V181.892C272.911 182.276 272.587 182.596 272.155 182.852C271.731 183.1 271.235 183.224 270.667 183.224C270.083 183.224 269.555 183.08 269.083 182.792C268.611 182.504 268.239 182.1 267.967 181.58C267.695 181.06 267.559 180.468 267.559 179.804ZM273.127 179.816C273.127 179.32 273.027 178.888 272.827 178.52C272.627 178.152 272.355 177.872 272.011 177.68C271.675 177.48 271.303 177.38 270.895 177.38C270.487 177.38 270.115 177.476 269.779 177.668C269.443 177.86 269.175 178.14 268.975 178.508C268.775 178.876 268.675 179.308 268.675 179.804C268.675 180.308 268.775 180.748 268.975 181.124C269.175 181.492 269.443 181.776 269.779 181.976C270.115 182.168 270.487 182.264 270.895 182.264C271.303 182.264 271.675 182.168 272.011 181.976C272.355 181.776 272.627 181.492 272.827 181.124C273.027 180.748 273.127 180.312 273.127 179.816ZM277.408 177.44V181.316C277.408 181.636 277.476 181.864 277.612 182C277.748 182.128 277.984 182.192 278.32 182.192H279.124V183.116H278.14C277.532 183.116 277.076 182.976 276.772 182.696C276.468 182.416 276.316 181.956 276.316 181.316V177.44H275.464V176.54H276.316V174.884H277.408V176.54H279.124V177.44H277.408Z" fill="white"/>
<path opacity="0.3" d="M3.49991 129.244C3.49991 129.244 14.0325 69.593 50.5 69.593C77 69.593 96 101.075 121 101.075C154.606 101.075 167.895 41.4235 201.5 41.4235C226.5 41.4235 202.5 95.5523 236 95.5523C267 95.5523 254.5 49.7093 283.758 39.7685" stroke="white" stroke-width="0.8" stroke-linecap="round"/>
<path opacity="0.7" d="M1.5 99.4187C8 125.93 27.3049 160.042 54.5 143.604C81 127.587 91.2868 25.4067 130.5 25.4067C161 25.4067 156.725 124.273 182.5 124.273C211.5 124.273 206.5 53.0229 237.5 53.0229C257.5 53.0229 264 101.075 283 99.4182" stroke="white" stroke-width="2.2" stroke-linecap="round"/>
<path d="M223.5 184.477V59.6513L230.5 54.1281L236 53.0234L241.5 53.5758V184.477H223.5Z" fill="url(#paint0_linear_398_17467)"/>
<path d="M241.625 53.7357C240.314 53.2727 238.942 53.0229 237.5 53.0229C231.696 53.0229 227.154 55.5204 223.415 59.5801" stroke="white" stroke-width="2.2" stroke-linecap="round"/>
<path d="M225.5 59.6514C225.5 61.2534 224.335 62.4653 223 62.4653C221.665 62.4653 220.5 61.2534 220.5 59.6514C220.5 58.0493 221.665 56.8374 223 56.8374C224.335 56.8374 225.5 58.0493 225.5 59.6514Z" fill="white" stroke="white"/>
<ellipse cx="223" cy="59.6512" rx="2" ry="2.2093" fill="url(#paint1_linear_398_17467)"/>
<path d="M244.5 54.1279C244.5 55.73 243.335 56.9419 242 56.9419C240.665 56.9419 239.5 55.73 239.5 54.1279C239.5 52.5258 240.665 51.314 242 51.314C243.335 51.314 244.5 52.5258 244.5 54.1279Z" fill="white" stroke="white"/>
<ellipse cx="242" cy="54.1278" rx="2" ry="2.2093" fill="url(#paint2_linear_398_17467)"/>
<defs>
<linearGradient id="paint0_linear_398_17467" x1="232.5" y1="53.0234" x2="232.5" y2="184.477" gradientUnits="userSpaceOnUse">
<stop stop-color="white"/>
<stop offset="1" stop-color="white" stop-opacity="0"/>
</linearGradient>
<linearGradient id="paint1_linear_398_17467" x1="225" y1="61.8605" x2="219.663" y2="61.4866" gradientUnits="userSpaceOnUse">
<stop stop-color="#92A3FD"/>
<stop offset="1" stop-color="#9DCEFF"/>
</linearGradient>
<linearGradient id="paint2_linear_398_17467" x1="244" y1="56.3371" x2="238.663" y2="55.9632" gradientUnits="userSpaceOnUse">
<stop stop-color="#92A3FD"/>
<stop offset="1" stop-color="#9DCEFF"/>
</linearGradient>
</defs>
</svg>
