<svg width="81" height="98" viewBox="0 0 81 98" fill="none" xmlns="http://www.w3.org/2000/svg">
<g filter="url(#filter0_d_326_5617)">
<g clip-path="url(#clip0_326_5617)">
<g opacity="0.3">
<path opacity="0.3" d="M22.3031 55.055H22.2588L20.5559 54.5601C20.4975 54.5419 20.4484 54.501 20.4191 54.4463C20.3899 54.3915 20.3828 54.3273 20.3994 54.2673C20.4161 54.2072 20.4551 54.1563 20.5081 54.1253C20.5611 54.0943 20.6239 54.0857 20.683 54.1014L22.3741 54.5903C22.4277 54.6082 22.4732 54.6454 22.502 54.6949C22.5309 54.7443 22.5413 54.8028 22.5312 54.8595C22.5211 54.9162 22.4912 54.9672 22.4471 55.0031C22.403 55.0391 22.3477 55.0575 22.2913 55.055H22.3031Z" fill="black"/>
<path opacity="0.3" d="M20.5559 56.395C20.5077 56.3905 20.462 56.371 20.425 56.3392C20.388 56.3074 20.3615 56.2647 20.349 56.217C20.3396 56.1857 20.3367 56.1527 20.3404 56.1202C20.3441 56.0877 20.3543 56.0563 20.3704 56.028C20.3865 55.9997 20.4081 55.9751 20.4339 55.9557C20.4597 55.9363 20.4892 55.9225 20.5204 55.9152L22.2233 55.4746C22.2824 55.4616 22.3442 55.4725 22.3956 55.5049C22.447 55.5374 22.484 55.589 22.499 55.6488C22.5139 55.7085 22.5055 55.7719 22.4756 55.8255C22.4457 55.8792 22.3966 55.9189 22.3386 55.9363L20.6328 56.3769C20.6084 56.3874 20.5824 56.3935 20.5559 56.395Z" fill="black"/>
<path opacity="0.3" d="M21.4251 58.0001C21.369 57.9945 21.3167 57.9688 21.2773 57.9277C21.2342 57.8831 21.21 57.8229 21.21 57.7602C21.21 57.6975 21.2342 57.6373 21.2773 57.5927L22.5367 56.3404C22.5582 56.3163 22.5842 56.2969 22.6133 56.2835C22.6423 56.27 22.6737 56.2628 22.7056 56.2622C22.7375 56.2617 22.7691 56.2678 22.7986 56.2802C22.8281 56.2926 22.8548 56.311 22.877 56.3343C22.8993 56.3576 22.9166 56.3854 22.9279 56.4158C22.9393 56.4462 22.9444 56.4787 22.943 56.5112C22.9416 56.5437 22.9337 56.5756 22.9197 56.6048C22.9058 56.6341 22.8861 56.6601 22.862 56.6814L21.6084 57.9397C21.5836 57.9622 21.5545 57.9792 21.523 57.9896C21.4914 58 21.4581 58.0035 21.4251 58.0001Z" fill="black"/>
<path opacity="0.3" d="M22.9535 58.951H22.9091C22.8789 58.9424 22.8508 58.9276 22.8263 58.9077C22.8018 58.8877 22.7815 58.8629 22.7666 58.8347C22.7517 58.8065 22.7425 58.7756 22.7396 58.7437C22.7366 58.7119 22.74 58.6797 22.7495 58.6492L23.2166 56.9231C23.2345 56.8635 23.2745 56.8133 23.3281 56.7835C23.3818 56.7536 23.4448 56.7464 23.5035 56.7634C23.5623 56.7804 23.6123 56.8202 23.6426 56.8743C23.673 56.9284 23.6814 56.9925 23.666 57.0529L23.187 58.779C23.1725 58.8302 23.1417 58.8749 23.0993 58.9061C23.057 58.9373 23.0056 58.9531 22.9535 58.951Z" fill="black"/>
</g>
<path d="M69.139 32.1535L64.9025 34.6431L55.6252 36.0131C55.6252 36.0131 48.8521 25.6262 47.8143 23.9936C46.7766 22.361 45.5616 21.3139 42.75 21.3169L43.2822 29.6035C43.3708 29.8721 48.9792 36.9245 52.6777 40.769C53.9844 42.124 54.7856 42.471 56.8167 41.8916C62.0288 40.416 68.3467 36.0433 68.8552 34.9509C69.5381 33.5235 69.0888 32.1837 69.139 32.1535Z" fill="#FFEDE5"/>
<path d="M67.3974 26.9C67.9532 25.0472 70.2238 23.5383 72.3317 24.1418C72.6656 24.236 72.9857 24.375 73.2837 24.5553C75.3532 25.7624 76.9999 28.7046 76.9999 31.1248C77.0067 31.5335 76.9508 31.9408 76.8343 32.3319C76.2815 34.1818 74.0169 35.7027 71.9001 35.0961C71.5667 35.0006 71.2467 34.8616 70.9481 34.6827C68.8963 33.4756 67.2319 30.5303 67.2319 28.1101C67.2259 27.7005 67.2817 27.2923 67.3974 26.9Z" fill="#455A64"/>
<path d="M70.9511 34.6647C68.8993 33.4576 67.2349 30.5124 67.2349 28.0922C67.2349 25.672 68.8993 24.6942 70.9511 25.9013C73.0028 27.1084 74.6584 30.0507 74.6584 32.4709C74.6584 34.8911 73.0028 35.8718 70.9511 34.6647Z" fill="#37474F"/>
<path d="M70.9512 28.5837C70.1618 28.119 69.5203 28.4962 69.5203 29.4257C69.5471 29.9323 69.6907 30.4254 69.9393 30.8648C70.188 31.3042 70.5346 31.6776 70.9512 31.9545C71.7405 32.4192 72.3791 32.042 72.3791 31.1126C72.3528 30.6061 72.2098 30.1131 71.9617 29.6737C71.7136 29.2343 71.3673 28.8608 70.9512 28.5837Z" fill="#455A64"/>
<path d="M70.4605 29.9811C70.4699 30.1547 70.5193 30.3235 70.6046 30.4739C70.6898 30.6244 70.8086 30.7523 70.9512 30.8472C70.9981 30.8816 71.0525 30.9038 71.1098 30.9117C71.167 30.9196 71.2253 30.913 71.2794 30.8925L71.3149 30.8713C71.3571 30.8344 71.3904 30.7878 71.4119 30.7354C71.4335 30.6831 71.4428 30.6263 71.439 30.5696C71.4297 30.3963 71.3806 30.2278 71.2959 30.0774C71.2112 29.927 71.0932 29.7989 70.9512 29.7035C70.9044 29.669 70.8499 29.6469 70.7927 29.639C70.7355 29.6311 70.6772 29.6377 70.6231 29.6582L70.5876 29.6793C70.5446 29.7159 70.5107 29.7622 70.4886 29.8147C70.4665 29.8671 70.4568 29.9241 70.4605 29.9811Z" fill="#37474F"/>
<path d="M62.611 34.6072C62.6202 34.7805 62.6691 34.9492 62.7538 35.0996C62.8385 35.2501 62.9567 35.3781 63.0988 35.4733C63.1624 35.5152 63.2361 35.5382 63.3117 35.5397C63.3691 35.5386 63.4252 35.5219 63.4743 35.4914L71.2792 30.8925L71.3147 30.8713C71.357 30.8344 71.3902 30.7878 71.4118 30.7354C71.4333 30.6831 71.4426 30.6263 71.4389 30.5696C71.4295 30.3963 71.3805 30.2278 71.2958 30.0774C71.2111 29.927 71.093 29.7989 70.9511 29.7035C70.9042 29.669 70.8498 29.6469 70.7925 29.639C70.7353 29.6311 70.677 29.6377 70.6229 29.6582L70.5874 29.6793L62.7825 34.2783C62.7265 34.3111 62.6806 34.3594 62.6503 34.4176C62.62 34.4758 62.6063 34.5415 62.611 34.6072Z" fill="#FAFAFA"/>
<path d="M54.951 34.2363C55.5039 32.3864 57.7685 30.8564 59.8853 31.463C60.2195 31.559 60.5403 31.6979 60.8402 31.8764C62.892 33.0835 64.5564 36.0288 64.5564 38.449C64.5615 38.8576 64.5056 39.2646 64.3909 39.6561C63.8351 41.5059 61.5734 43.0269 59.4566 42.4233C59.1234 42.3273 58.8035 42.1883 58.5046 42.0099C56.4529 40.8028 54.7884 37.8575 54.7884 35.4403C54.7816 35.0328 54.8364 34.6267 54.951 34.2363Z" fill="#455A64"/>
<path d="M58.5016 41.9976C56.4499 40.7905 54.7854 37.8452 54.7854 35.428C54.7854 33.0108 56.4499 32.0271 58.5016 33.2341C60.5534 34.4412 62.2178 37.3865 62.2178 39.8067C62.2178 42.2269 60.5563 43.2077 58.5016 41.9976Z" fill="#37474F"/>
<path d="M58.5017 35.9108C57.7123 35.443 57.0737 35.8203 57.0737 36.7527C57.1005 37.2587 57.2437 37.7511 57.4918 38.1899C57.7399 38.6288 58.0859 39.0017 58.5017 39.2785C59.2911 39.7433 59.9326 39.3661 59.9326 38.4366C59.9053 37.9304 59.7615 37.438 59.5129 36.9991C59.2643 36.5603 58.9178 36.1874 58.5017 35.9108Z" fill="#455A64"/>
<path d="M58.0137 37.3143C58.0228 37.4876 58.0717 37.6563 58.1565 37.8067C58.2412 37.9571 58.3594 38.0852 58.5015 38.1804C58.5484 38.2149 58.6028 38.237 58.66 38.2449C58.7173 38.2528 58.7755 38.2462 58.8297 38.2257C58.8428 38.2211 58.8548 38.2139 58.8651 38.2046C58.9079 38.1679 58.9417 38.1215 58.9638 38.0691C58.9859 38.0167 58.9956 37.9597 58.9923 37.9028C58.9825 37.7293 58.9331 37.5606 58.8479 37.4101C58.7626 37.2597 58.644 37.1318 58.5015 37.0367C58.4547 37.0032 58.4007 36.9819 58.344 36.9746C58.2873 36.9672 58.2298 36.974 58.1763 36.9945L58.1408 37.0156C58.0979 37.0515 58.0639 37.0973 58.0418 37.1492C58.0197 37.2012 58.0101 37.2578 58.0137 37.3143Z" fill="#37474F"/>
<path d="M56.8312 38.0231C56.8397 38.1966 56.8883 38.3655 56.9731 38.5161C57.0579 38.6666 57.1764 38.7945 57.319 38.8892C57.3826 38.9311 57.4563 38.954 57.5319 38.9556C57.5893 38.9542 57.6453 38.9375 57.6945 38.9073L58.8298 38.2374C58.8429 38.2328 58.8549 38.2257 58.8652 38.2163C58.908 38.1796 58.9418 38.1332 58.9639 38.0808C58.986 38.0284 58.9957 37.9714 58.9924 37.9145C58.9826 37.741 58.9332 37.5723 58.848 37.4219C58.7627 37.2714 58.6441 37.1435 58.5016 37.0484C58.4548 37.015 58.4008 36.9936 58.3441 36.9863C58.2874 36.9789 58.2299 36.9857 58.1764 37.0062L58.1409 37.0273L57.0027 37.6942C56.9467 37.727 56.9009 37.7753 56.8705 37.8335C56.8402 37.8916 56.8266 37.9574 56.8312 38.0231Z" fill="#FAFAFA"/>
<path d="M56.8312 38.0234C56.8399 38.1972 56.8886 38.3665 56.9734 38.5175C57.0581 38.6685 57.1765 38.797 57.319 38.8925C57.3664 38.926 57.4209 38.9473 57.478 38.9547C57.5352 38.962 57.5932 38.9552 57.6472 38.9348L57.6827 38.9136C57.7259 38.8773 57.7599 38.8309 57.782 38.7785C57.8041 38.726 57.8137 38.6689 57.8098 38.6119C57.7999 38.438 57.7503 38.2689 57.6651 38.1181C57.5799 37.9672 57.4614 37.8387 57.319 37.7428C57.2717 37.7093 57.2172 37.688 57.16 37.6806C57.1029 37.6732 57.0449 37.6801 56.9909 37.7005L56.9554 37.7216C56.9129 37.7585 56.8796 37.805 56.858 37.8574C56.8364 37.9098 56.8273 37.9667 56.8312 38.0234Z" fill="#E0E0E0"/>
<path d="M66.4308 37.0753C68.2253 35.6781 69.946 35.6872 69.6355 32.2712C69.3724 30.7623 69.0058 30.6537 67.5661 30.0803C66.9334 29.8298 66.0878 29.6397 65.5823 30.2312C65.5268 30.3055 65.4655 30.3751 65.399 30.4394C65.2499 30.5364 65.0788 30.5925 64.9023 30.6024C64.5652 30.6192 64.2448 30.757 63.9977 30.9916C63.8291 31.1878 63.7641 31.4564 63.5985 31.6525C63.4395 31.8063 63.2684 31.9465 63.0871 32.072C62.9571 32.187 62.8523 32.3287 62.7795 32.4878C62.7067 32.6469 62.6674 32.8198 62.6643 32.9954C62.6762 33.1961 62.7311 33.3918 62.8251 33.5685C62.9191 33.7452 63.0499 33.8988 63.2083 34.0184L64.113 33.4873C64.4825 33.2278 65.2453 34.1542 64.9171 34.6431C64.3938 35.4216 66.4308 37.0753 66.4308 37.0753Z" fill="#FFEDE5"/>
<path d="M45.5289 43.9436C46.1025 41.5777 46.268 35.666 46.268 35.666L29.4814 36.179L30.395 39.9119C30.5457 40.7534 30.6258 41.6065 30.6344 42.4619C30.6344 42.4619 32.2634 45.543 37.0942 46.0831C40.0625 46.3719 43.0384 45.6171 45.5289 43.9436Z" fill="#FFEDE5"/>
<path d="M46.2768 35.6662C46.2975 35.8533 46.1792 37.6428 46.1792 37.6428C44.0328 39.4867 37.1473 40.4191 29.9189 37.9657L28.3875 31.9303C28.3875 31.9303 33.5848 29.6007 30.0726 21.7848L33.848 21.483L40.5502 21.311H42.7498C44.5583 23.1046 46.0868 25.1706 47.282 27.437C48.16 29.1088 49.2775 31.5592 46.2768 35.6662Z" fill="#455A64"/>
<path d="M36.7778 35.7207C33.7534 34.9331 32.9966 33.0047 32.7808 31.5864C32.7808 31.5864 32.2102 35.7207 36.5325 36.6833C41.0913 37.6973 42.9656 34.0127 42.9656 34.0127C42.9656 34.0127 40.4261 36.6713 36.7778 35.7207Z" fill="#37474F"/>
<path d="M11.0333 81.7256C10.1464 82.3865 8.10353 82.5464 6.30306 81.6833C4.5026 80.8203 3.75167 78.3639 4.0887 76.4657C4.49669 74.1512 5.61717 72.8867 5.90099 71.4926C6.18481 70.0984 5.90099 68.1731 6.33263 66.9298C6.51055 66.4519 6.78762 66.0189 7.14482 65.6606C7.50203 65.3022 7.93093 65.0269 8.40212 64.8536C8.70253 64.7351 9.02555 64.6885 9.34636 64.7172C9.66718 64.746 9.97728 64.8494 10.2528 65.0196L10.785 65.3395L11.0333 81.7256Z" fill="#263238"/>
<path d="M13.1471 72.8985L11.7457 77.1897C11.7457 77.1897 12.6327 80.2496 12.133 81.0644C11.3969 82.2715 10.099 82.4827 7.91421 81.8007C5.41603 81.0252 4.8277 78.7166 4.95779 76.9241C5.13517 74.3681 7.45005 72.4458 7.18397 69.9834C7.05389 68.7763 7.21649 67.4274 7.86395 66.3893C8.58827 65.2305 9.77676 65.0132 11.0096 65.3904C12.068 65.7163 12.9963 66.3953 13.8921 67.0321C14.1493 67.1992 14.3822 67.4023 14.5839 67.6356C14.7444 67.8541 14.8646 68.1005 14.9387 68.3629C15.1008 68.8903 15.1492 69.4472 15.0806 69.9955C15.0155 70.5085 14.6933 70.8072 14.3947 71.2025L13.1471 72.8985Z" fill="url(#paint0_linear_326_5617)"/>
<path d="M19.1872 70.868C19.1015 70.8348 14.8206 68.0404 14.3594 67.8291C13.8982 67.6179 12.7629 67.3191 11.6661 69.9114C10.8826 71.7552 12.009 72.4372 12.009 72.4372L17.0349 75.4851L19.1872 70.868Z" fill="#FFEDE5"/>
<path d="M11.7459 77.1899C10.8401 76.7278 9.83734 76.4988 8.82497 76.523C8.74981 76.5302 8.67406 76.5184 8.60439 76.4887C8.53471 76.459 8.47324 76.4124 8.42537 76.3528C8.3775 76.2932 8.34469 76.2225 8.32983 76.147C8.31496 76.0714 8.3185 75.9933 8.34012 75.9194C8.36857 75.8315 8.42198 75.7541 8.49356 75.6972C8.56514 75.6402 8.65168 75.6063 8.74219 75.5996C9.41922 75.5453 11.063 75.5241 12.1539 76.4415C12.4436 77.039 11.7459 77.1899 11.7459 77.1899Z" fill="url(#paint1_linear_326_5617)"/>
<path d="M12.2603 75.2282C11.3795 74.719 10.3897 74.4382 9.37781 74.4104C9.30161 74.4143 9.22566 74.3987 9.15677 74.3653C9.08788 74.3318 9.0282 74.2814 8.98309 74.2186C8.93797 74.1558 8.90882 74.0826 8.89825 74.0054C8.88768 73.9283 8.89602 73.8497 8.92252 73.7767C8.95512 73.69 9.01209 73.6152 9.08626 73.5615C9.16042 73.5078 9.24849 73.4777 9.33938 73.4749C10.0194 73.4568 11.6631 73.5262 12.7067 74.4979C12.9639 75.1165 12.2603 75.2282 12.2603 75.2282Z" fill="url(#paint2_linear_326_5617)"/>
<path opacity="0.3" d="M11.7459 77.1899C10.8401 76.7278 9.83734 76.4988 8.82497 76.523C8.74981 76.5302 8.67406 76.5184 8.60439 76.4887C8.53471 76.459 8.47324 76.4124 8.42537 76.3528C8.3775 76.2932 8.34469 76.2225 8.32983 76.147C8.31496 76.0714 8.3185 75.9933 8.34012 75.9194C8.36857 75.8315 8.42198 75.7541 8.49356 75.6972C8.56514 75.6402 8.65168 75.6063 8.74219 75.5996C9.41922 75.5453 11.063 75.5241 12.1539 76.4415C12.4436 77.039 11.7459 77.1899 11.7459 77.1899Z" fill="black"/>
<path opacity="0.3" d="M12.2603 75.2282C11.3795 74.719 10.3897 74.4382 9.37781 74.4104C9.30161 74.4143 9.22566 74.3987 9.15677 74.3653C9.08788 74.3318 9.0282 74.2814 8.98309 74.2186C8.93797 74.1558 8.90882 74.0826 8.89825 74.0054C8.88768 73.9283 8.89602 73.8497 8.92252 73.7767C8.95512 73.69 9.01209 73.6152 9.08626 73.5615C9.16042 73.5078 9.24849 73.4777 9.33938 73.4749C10.0194 73.4568 11.6631 73.5262 12.7067 74.4979C12.9639 75.1165 12.2603 75.2282 12.2603 75.2282Z" fill="black"/>
<path d="M55.8881 82.1901L61.4491 79.9389C61.3545 78.4753 60.9997 76.5258 61.3693 72.6964L55.0603 71.4712V77.917L55.8881 82.1901Z" fill="#FFEDE5"/>
<path d="M71.7554 87.1756C71.9031 87.6326 71.8757 88.1297 71.6785 88.5668C71.4893 88.9742 69.405 90.1722 66.5934 89.9791C64.5085 89.83 62.5007 89.1141 60.7782 87.9059C59.7079 87.1817 58.5904 87.0459 57.2009 86.9644C55.8114 86.8829 53.9784 86.1737 53.6739 85.5098C53.3694 84.8459 53.7212 83.6992 53.7212 83.6992L71.7554 87.1756Z" fill="#263238"/>
<path d="M60.4115 78.2189L60.6333 78.1706C60.7538 78.1376 60.8798 78.1314 61.0028 78.1525C61.1394 78.1955 61.2606 78.2784 61.3517 78.3909C61.6269 78.749 61.8666 79.1341 62.0671 79.5406C62.6584 80.5214 63.8942 81.3362 65.2453 82.0755C66.1647 82.5795 67.0635 82.9808 68.0125 83.4063C68.9615 83.8318 70.2623 84.1215 71.0192 84.6436C72.1219 85.401 72.2668 87.3082 71.0192 88.0596C69.9371 88.7114 67.0842 89.4146 64.0923 88.5485C62.4603 88.0777 60.651 86.3003 58.5135 86.1343C57.1536 86.0257 54.5785 85.6364 53.7034 84.5832C53.3812 84.1155 53.8128 82.6307 54.1676 81.3512C54.5549 79.954 54.6968 77.4916 55.1521 77.6153C55.1521 77.6153 55.0279 77.9624 55.2053 78.1495C55.3827 78.3366 56.0065 78.7108 56.1898 78.8677C56.4963 79.1868 56.7437 79.56 56.92 79.9691C56.9933 80.1539 57.1299 80.3051 57.3043 80.3946C57.5349 80.4821 57.7064 80.3343 57.8956 80.2407C58.1514 80.1239 58.4395 80.1036 58.7086 80.1834C58.6827 79.9062 58.6342 79.6316 58.5638 79.3626C58.5335 79.2776 58.5264 79.1858 58.5431 79.097C58.5803 79.0142 58.6411 78.9448 58.7175 78.8979C59.2295 78.5532 59.8066 78.3219 60.4115 78.2189Z" fill="url(#paint3_linear_326_5617)"/>
<path d="M63.9741 81.3211C63.9741 81.3211 63.779 80.7869 62.9719 80.6361C62.351 80.5184 61.2572 80.9831 60.5772 81.5414C60.5132 81.5953 60.463 81.6643 60.431 81.7424C60.399 81.8205 60.3861 81.9054 60.3933 81.9897C60.4006 82.0741 60.4279 82.1553 60.4728 82.2265C60.5177 82.2977 60.5789 82.3567 60.6511 82.3984C60.7439 82.4525 60.8511 82.4753 60.9573 82.4634C61.0635 82.4514 61.1633 82.4054 61.2424 82.332C61.9909 81.6476 62.9698 81.2853 63.9741 81.3211Z" fill="url(#paint4_linear_326_5617)"/>
<path d="M65.8928 82.4166C65.7588 82.2238 65.5816 82.0664 65.3758 81.9578C65.1701 81.8491 64.9419 81.7922 64.7102 81.792C64.7102 81.792 63.0931 81.8403 62.0908 82.7909C62.0298 82.8433 61.982 82.9099 61.9515 82.9851C61.921 83.0604 61.9088 83.142 61.9157 83.2231C61.9227 83.3042 61.9487 83.3824 61.9915 83.4511C62.0343 83.5198 62.0927 83.5769 62.1618 83.6177C62.2496 83.6675 62.3504 83.6879 62.4502 83.676C62.5499 83.6641 62.6435 83.6205 62.7176 83.5513C63.1303 83.1323 63.6297 82.8128 64.1792 82.6165C64.7286 82.4202 65.3141 82.3519 65.8928 82.4166Z" fill="url(#paint5_linear_326_5617)"/>
<path d="M68.0124 83.4062C67.858 83.2272 67.6678 83.0841 67.4546 82.9868C67.2414 82.8894 67.0101 82.84 66.7766 82.8418C66.7766 82.8418 65.2688 82.8992 64.2695 83.8498C64.2077 83.9016 64.1592 83.9679 64.128 84.0431C64.0969 84.1183 64.0842 84.2001 64.0908 84.2814C64.0975 84.3628 64.1235 84.4412 64.1664 84.5101C64.2094 84.5789 64.2681 84.6361 64.3375 84.6766C64.4259 84.7262 64.5272 84.7465 64.6273 84.7346C64.7275 84.7227 64.8215 84.6792 64.8963 84.6102C65.2881 84.1758 65.7738 83.8408 66.3147 83.6318C66.8557 83.4227 67.437 83.3455 68.0124 83.4062Z" fill="url(#paint6_linear_326_5617)"/>
<path opacity="0.3" d="M63.9741 81.3211C63.9741 81.3211 63.779 80.7869 62.9719 80.6361C62.351 80.5184 61.2572 80.9831 60.5772 81.5414C60.5132 81.5953 60.463 81.6643 60.431 81.7424C60.399 81.8205 60.3861 81.9054 60.3933 81.9897C60.4006 82.0741 60.4279 82.1553 60.4728 82.2265C60.5177 82.2977 60.5789 82.3567 60.6511 82.3984C60.7439 82.4525 60.8511 82.4753 60.9573 82.4634C61.0635 82.4514 61.1633 82.4054 61.2424 82.332C61.9909 81.6476 62.9698 81.2853 63.9741 81.3211Z" fill="black"/>
<path opacity="0.3" d="M65.8928 82.4166C65.7588 82.2238 65.5816 82.0664 65.3758 81.9578C65.1701 81.8491 64.9419 81.7922 64.7102 81.792C64.7102 81.792 63.0931 81.8403 62.0908 82.7909C62.0298 82.8433 61.982 82.9099 61.9515 82.9851C61.921 83.0604 61.9088 83.142 61.9157 83.2231C61.9227 83.3042 61.9487 83.3824 61.9915 83.4511C62.0343 83.5198 62.0927 83.5769 62.1618 83.6177C62.2496 83.6675 62.3504 83.6879 62.4502 83.676C62.5499 83.6641 62.6435 83.6205 62.7176 83.5513C63.1303 83.1323 63.6297 82.8128 64.1792 82.6165C64.7286 82.4202 65.3141 82.3519 65.8928 82.4166Z" fill="black"/>
<path opacity="0.3" d="M68.0124 83.4062C67.858 83.2272 67.6678 83.0841 67.4546 82.9868C67.2414 82.8894 67.0101 82.84 66.7766 82.8418C66.7766 82.8418 65.2688 82.8992 64.2695 83.8498C64.2077 83.9016 64.1592 83.9679 64.128 84.0431C64.0969 84.1183 64.0842 84.2001 64.0908 84.2814C64.0975 84.3628 64.1235 84.4412 64.1664 84.5101C64.2094 84.5789 64.2681 84.6361 64.3375 84.6766C64.4259 84.7262 64.5272 84.7465 64.6273 84.7346C64.7275 84.7227 64.8215 84.6792 64.8963 84.6102C65.2881 84.1758 65.7738 83.8408 66.3147 83.6318C66.8557 83.4227 67.437 83.3455 68.0124 83.4062Z" fill="black"/>
<path d="M59.6901 49.8191C55.4625 48.8504 45.3663 46.6958 45.3663 46.6958L45.5289 43.9436C41.8777 45.8749 34.1821 45.3287 30.6344 42.4619L30.0757 45.38C28.7305 47.0238 27.5657 48.8129 26.6019 50.7153C25.7918 52.3539 24.4378 54.9099 25.7859 60.8639C26.5782 64.3614 27.6337 73.5684 27.6337 73.5684L17.2862 69.6756C17.2862 69.6756 16.3992 69.8295 15.6483 71.8091C15.2049 72.9799 15.057 74.1055 15.5064 74.688C19.2906 77.7389 25.4222 82.7211 31.6189 85.5155C35.7579 87.133 37.9575 83.5811 38.1585 82.2654C38.9361 77.2258 39.8319 61.0329 39.8319 61.0329L53.6679 60.5832C53.2097 63.2569 55.0722 73.7042 55.0722 73.7042C55.0722 73.7042 58.478 75.213 61.2984 73.668C61.2984 73.668 63.1846 61.6455 63.3679 57.6349C63.5542 53.1627 63.7789 50.7576 59.6901 49.8191Z" fill="url(#paint7_linear_326_5617)"/>
<path opacity="0.15" d="M53.6679 60.5834C53.6679 59.8622 54.138 57.3424 55.7374 55.9995C55.7374 55.9995 53.5438 56.4009 52.5386 60.6196L53.6679 60.5834Z" fill="black"/>
<path opacity="0.15" d="M27.6336 73.5686C27.6336 73.5686 27.9292 77.5429 28.6742 79.4803C28.6742 79.4803 26.8087 76.0401 26.6047 73.1763L27.6336 73.5686Z" fill="black"/>
<path opacity="0.15" d="M45.3633 46.6961L45.5259 43.947C41.8747 45.8753 34.1821 45.3291 30.6374 42.4653L30.0786 45.3804C30.1082 45.4076 32.3846 47.8097 38.3034 48.1205C44.2221 48.4313 45.3633 46.6961 45.3633 46.6961Z" fill="black"/>
<path opacity="0.15" d="M39.8438 61.0333C39.7948 59.5396 39.4487 58.0716 38.8266 56.7187C38.2045 55.3657 37.3194 54.156 36.2251 53.1631C36.2251 53.1631 39.4062 54.6719 40.4705 59.449C40.4705 59.449 42.8357 58.3234 44.0714 54.9496C44.0714 54.9496 43.693 58.3234 41.7891 60.2426L47.5275 60.7828L39.8438 61.0333Z" fill="black"/>
<path d="M37.999 1.20688e-05C36.7844 -0.00197107 35.5812 0.240466 34.4585 0.713459C33.3357 1.18645 32.3153 1.88072 31.4556 2.75657C30.5958 3.63241 29.9137 4.67265 29.4482 5.81779C28.9826 6.96293 28.7428 8.19052 28.7424 9.43034C28.7424 10.6704 28.982 11.8983 29.4473 13.0438C29.9127 14.1893 30.5948 15.2299 31.4545 16.1061C32.3143 16.9822 33.3348 17.6768 34.4578 18.1499C35.5807 18.6231 36.7841 18.8657 37.999 18.8637C40.4472 18.8597 42.7938 17.864 44.5233 16.0952C46.2528 14.3265 47.2238 11.9293 47.223 9.43034C47.223 6.93187 46.2517 4.53551 44.5223 2.76742C42.7929 0.999323 40.4467 0.00400961 37.999 1.20688e-05Z" fill="#263238"/>
<path d="M28.3461 5.73377C28.6802 5.71816 29.015 5.73737 29.3453 5.79111C29.4573 5.79862 29.5626 5.84805 29.641 5.92992C29.6865 5.99763 29.7121 6.0772 29.7149 6.15926C29.7912 6.68318 29.7435 7.21813 29.5759 7.71942C29.4459 8.06947 29.0408 8.24752 28.7836 8.501C27.7844 9.49081 27.7045 11.1294 28.0977 12.4904C28.4909 13.8514 29.2803 15.0645 29.7918 16.3802C30.3032 17.6959 30.5752 19.2802 29.8509 20.605C29.57 21.112 29.0586 21.5103 29.1207 22.1139C29.1916 22.8532 29.8243 23.5593 30.0963 24.2263C30.3948 25.0163 30.4964 25.8698 30.3919 26.7098C30.3171 27.7543 29.9371 28.7519 29.301 29.5736C28.8148 30.152 28.1871 30.5885 27.4819 30.8387C26.7766 31.0889 26.019 31.1439 25.2862 30.998C24.9772 30.9429 24.6848 30.8159 24.4318 30.6268C23.9972 30.2707 23.8227 29.6883 23.5862 29.1723C22.8264 27.5035 21.2211 26.2904 20.7333 24.519C20.2041 22.6329 21.0851 20.6714 22.1671 19.069C22.6727 18.3206 23.2374 17.5873 23.4857 16.7122C23.8198 15.5323 23.5271 14.2769 23.4502 13.0487C23.3769 11.849 23.512 10.6455 23.8494 9.49383C24.0918 8.66094 24.4672 7.70131 25.1029 7.10381C25.9949 6.27599 27.1418 5.7915 28.3461 5.73377Z" fill="#263238"/>
<path d="M43.7758 4.31543C44.7868 4.93406 46.0315 7.54437 45.8866 13.0064C45.7625 17.6356 44.2872 18.7733 43.5481 19.1022C42.809 19.4311 41.384 19.2199 40.0004 18.9785V21.7578C40.0004 21.7578 41.9043 24.0331 41.7743 25.3096C41.6442 26.5861 39.007 26.8728 37.2214 25.6114C35.4357 24.35 33.9368 21.9268 33.9368 21.9268L33.9959 15.5353C33.9959 15.5353 33.1711 16.35 31.7904 15.1128C30.6581 14.0898 30.2797 12.3727 31.1725 11.4674C32.0654 10.5621 33.7062 10.8065 34.3329 12.1222C34.3329 12.1222 36.5384 12.2128 39.486 10.5772C40.6327 9.95078 41.6186 9.05742 42.3639 7.96951C43.1092 6.8816 43.5929 5.62975 43.7758 4.31543Z" fill="#FFEDE5"/>
<path d="M40.8253 11.8235C40.8258 11.9379 40.7933 12.05 40.7318 12.1456C40.6703 12.2413 40.5826 12.3163 40.4796 12.3614C40.3766 12.4065 40.2628 12.4197 40.1526 12.3992C40.0423 12.3787 39.9404 12.3256 39.8595 12.2463C39.7787 12.1671 39.7225 12.0653 39.6979 11.9537C39.6734 11.8421 39.6816 11.7255 39.7215 11.6186C39.7615 11.5117 39.8314 11.4192 39.9225 11.3526C40.0136 11.286 40.122 11.2483 40.234 11.2441C40.3868 11.244 40.5337 11.3043 40.6439 11.4123C40.7542 11.5203 40.8191 11.6677 40.8253 11.8235Z" fill="#263238"/>
<g style="mix-blend-mode:multiply" opacity="0.5">
<g style="mix-blend-mode:multiply" opacity="0.5">
<path d="M40.9552 15.7495L42.2767 16.1841C42.2527 16.2746 42.211 16.3593 42.1541 16.433C42.0972 16.5067 42.0264 16.5679 41.9457 16.613C41.8651 16.6581 41.7764 16.6861 41.685 16.6954C41.5935 16.7046 41.5012 16.6949 41.4134 16.6669C41.2352 16.6048 41.0877 16.4743 41.0021 16.303C40.9166 16.1318 40.8998 15.9332 40.9552 15.7495Z" fill="#F28F8F"/>
</g>
</g>
<path d="M45.5111 10.0551L44.3611 9.23431C44.4093 9.15482 44.4729 9.08623 44.548 9.03277C44.6231 8.97931 44.7081 8.94211 44.7979 8.92345C44.8876 8.9048 44.9801 8.90508 45.0697 8.92429C45.1593 8.9435 45.2442 8.98122 45.319 9.03514C45.4717 9.1486 45.5765 9.31706 45.6122 9.50643C45.6479 9.6958 45.6118 9.89193 45.5111 10.0551Z" fill="#263238"/>
<path d="M45.2391 11.4192C45.2401 11.5337 45.2081 11.646 45.147 11.742C45.0859 11.8381 44.9984 11.9136 44.8954 11.9592C44.7925 12.0047 44.6787 12.0183 44.5682 11.9982C44.4578 11.978 44.3556 11.9251 44.2744 11.846C44.1933 11.7669 44.1368 11.6651 44.112 11.5534C44.0872 11.4417 44.0952 11.3251 44.1351 11.218C44.1749 11.1109 44.2448 11.0182 44.336 10.9515C44.4272 10.8847 44.5356 10.8469 44.6478 10.8428C44.8001 10.8426 44.9466 10.9025 45.0567 11.0098C45.1669 11.1172 45.2322 11.2638 45.2391 11.4192Z" fill="#263238"/>
<g style="mix-blend-mode:multiply" opacity="0.5">
<g style="mix-blend-mode:multiply" opacity="0.5">
<path d="M42.5488 11.0752L42.6257 14.5818L44.435 14.0175L42.5488 11.0752Z" fill="#F28F8F"/>
</g>
</g>
<g style="mix-blend-mode:multiply" opacity="0.5">
<g style="mix-blend-mode:multiply" opacity="0.5">
<path d="M40.0032 18.9784C38.5428 18.7792 35.5449 17.886 35.0837 16.6729C35.2695 17.2859 35.6347 17.8261 36.1303 18.2209C37.0232 19.0116 39.9973 19.9169 39.9973 19.9169L40.0032 18.9784Z" fill="#F28F8F"/>
</g>
</g>
<path d="M30.0726 21.7876C27.2108 21.9958 26.0311 22.367 24.4376 25.9762C23.0038 29.2202 19.5743 37.6155 18.717 39.4864C17.8596 41.3574 17.697 42.1088 18.4213 44.0673C19.0126 45.6637 23.8434 54.8345 24.3726 56.1713C24.9018 57.5082 25.1353 58.8601 26.0371 60.4172C26.9388 61.9744 28.3638 63.4953 29.4902 63.8544C31.1605 64.3885 33.3335 63.6462 33.3956 62.6171C33.4577 61.5881 30.9447 59.871 30.2618 57.5866C30.7163 57.8914 31.1949 58.1569 31.6927 58.3803C32.3697 58.6639 33.1266 58.6006 33.3512 58.2083C33.5759 57.816 32.8989 57.5776 32.2958 56.965C31.9351 56.5998 31.2965 55.779 30.4806 55.0548C29.9277 54.5659 29.023 54.4211 28.6151 53.8839C28.3963 53.5972 27.4029 51.1136 26.6549 48.9017C25.7325 46.1586 24.5175 42.5072 24.5175 42.5072L29.4902 31.9452C29.4902 31.9452 33.3897 27.9739 30.0726 21.7876Z" fill="#FFEDE5"/>
<path d="M24.3639 56.1717C24.3639 56.1717 25.508 53.8089 28.6063 53.8843L27.7874 52.0254C27.7874 52.0254 24.763 52.2427 23.4888 54.3339L24.3639 56.1717Z" fill="#37474F"/>
<path d="M24.0299 54.1648L24.6951 55.1274C24.7432 55.1974 24.8047 55.2568 24.8758 55.302C24.947 55.3472 25.0263 55.3773 25.109 55.3906C25.1918 55.4038 25.2764 55.3999 25.3576 55.3791C25.4389 55.3582 25.5152 55.3209 25.582 55.2693L26.7646 54.364C26.902 54.2565 26.9942 54.0996 27.0222 53.9252C27.0502 53.7508 27.012 53.5721 26.9154 53.4255L26.2975 52.496C26.251 52.4243 26.1907 52.363 26.1202 52.3158C26.0498 52.2686 25.9706 52.2365 25.8877 52.2216C25.8047 52.2066 25.7196 52.209 25.6376 52.2287C25.5555 52.2484 25.4783 52.2849 25.4105 52.3361L24.157 53.2414C24.0205 53.3469 23.9305 53.5032 23.9067 53.6763C23.8829 53.8494 23.9272 54.025 24.0299 54.1648Z" fill="#263238"/>
<path d="M23.808 54.1406L24.4791 55.1032C24.5275 55.1729 24.5891 55.2319 24.6603 55.2769C24.7314 55.3219 24.8106 55.3518 24.8933 55.3651C24.9759 55.3783 25.0604 55.3745 25.1416 55.3539C25.2228 55.3332 25.2991 55.2962 25.3661 55.245L26.5486 54.3397C26.686 54.2323 26.7782 54.0756 26.8068 53.9014C26.8353 53.7272 26.798 53.5484 26.7024 53.4012L26.0845 52.4718C26.0377 52.4004 25.9773 52.3394 25.9068 52.2924C25.8363 52.2455 25.7573 52.2136 25.6744 52.1987C25.5916 52.1837 25.5066 52.1861 25.4247 52.2055C25.3427 52.225 25.2654 52.2611 25.1975 52.3118L23.944 53.2322C23.8097 53.3356 23.7203 53.4884 23.6949 53.6582C23.6695 53.8279 23.7101 54.001 23.808 54.1406Z" fill="#455A64"/>
<path d="M26.5812 53.8238C26.5663 53.9432 26.5057 54.0516 26.4127 54.1256L25.2301 55.0309C25.189 55.0644 25.1414 55.0884 25.0904 55.1014C25.0394 55.1145 24.9862 55.1161 24.9345 55.1063C24.8838 55.0983 24.8352 55.0801 24.7915 55.0526C24.7479 55.0251 24.71 54.989 24.6802 54.9464L24.0062 53.9807C23.9493 53.9005 23.924 53.8014 23.9352 53.7031C23.9392 53.6434 23.9562 53.5854 23.9848 53.5332C24.0134 53.4811 24.053 53.436 24.1008 53.4013L25.3543 52.496C25.3962 52.4643 25.4441 52.4417 25.495 52.4297C25.5459 52.4178 25.5987 52.4167 25.65 52.4266C25.7006 52.4357 25.7489 52.4551 25.7921 52.4836C25.8352 52.5121 25.8724 52.5492 25.9013 52.5926L26.5191 53.522C26.5771 53.6108 26.6023 53.7178 26.5901 53.8238H26.5812Z" fill="url(#paint8_linear_326_5617)"/>
</g>
</g>
<defs>
<filter id="filter0_d_326_5617" x="0" y="0" width="81" height="98" filterUnits="userSpaceOnUse" color-interpolation-filters="sRGB">
<feFlood flood-opacity="0" result="BackgroundImageFix"/>
<feColorMatrix in="SourceAlpha" type="matrix" values="0 0 0 0 0 0 0 0 0 0 0 0 0 0 0 0 0 0 127 0" result="hardAlpha"/>
<feOffset dy="4"/>
<feGaussianBlur stdDeviation="2"/>
<feComposite in2="hardAlpha" operator="out"/>
<feColorMatrix type="matrix" values="0 0 0 0 0 0 0 0 0 0 0 0 0 0 0 0 0 0 0.25 0"/>
<feBlend mode="normal" in2="BackgroundImageFix" result="effect1_dropShadow_326_5617"/>
<feBlend mode="normal" in="SourceGraphic" in2="effect1_dropShadow_326_5617" result="shape"/>
</filter>
<linearGradient id="paint0_linear_326_5617" x1="15.1108" y1="82.1857" x2="1.50456" y2="81.5546" gradientUnits="userSpaceOnUse">
<stop stop-color="#92A3FD"/>
<stop offset="1" stop-color="#9DCEFF"/>
</linearGradient>
<linearGradient id="paint1_linear_326_5617" x1="12.2243" y1="77.1899" x2="7.16816" y2="76.2423" gradientUnits="userSpaceOnUse">
<stop stop-color="#92A3FD"/>
<stop offset="1" stop-color="#9DCEFF"/>
</linearGradient>
<linearGradient id="paint2_linear_326_5617" x1="12.7633" y1="75.2282" x2="7.72184" y2="74.3683" gradientUnits="userSpaceOnUse">
<stop stop-color="#92A3FD"/>
<stop offset="1" stop-color="#9DCEFF"/>
</linearGradient>
<linearGradient id="paint3_linear_326_5617" x1="71.9014" y1="88.9515" x2="47.7275" y2="85.9311" gradientUnits="userSpaceOnUse">
<stop stop-color="#92A3FD"/>
<stop offset="1" stop-color="#9DCEFF"/>
</linearGradient>
<linearGradient id="paint4_linear_326_5617" x1="63.9741" y1="82.4665" x2="59.2761" y2="81.762" gradientUnits="userSpaceOnUse">
<stop stop-color="#92A3FD"/>
<stop offset="1" stop-color="#9DCEFF"/>
</linearGradient>
<linearGradient id="paint5_linear_326_5617" x1="65.8928" y1="83.6793" x2="60.6962" y2="82.8315" gradientUnits="userSpaceOnUse">
<stop stop-color="#92A3FD"/>
<stop offset="1" stop-color="#9DCEFF"/>
</linearGradient>
<linearGradient id="paint6_linear_326_5617" x1="68.0124" y1="84.7379" x2="62.8836" y2="83.9168" gradientUnits="userSpaceOnUse">
<stop stop-color="#92A3FD"/>
<stop offset="1" stop-color="#9DCEFF"/>
</linearGradient>
<linearGradient id="paint7_linear_326_5617" x1="63.4502" y1="85.9297" x2="-0.724148" y2="80.4213" gradientUnits="userSpaceOnUse">
<stop stop-color="#92A3FD"/>
<stop offset="1" stop-color="#9DCEFF"/>
</linearGradient>
<linearGradient id="paint8_linear_326_5617" x1="26.5931" y1="55.1126" x2="23.0467" y2="54.8415" gradientUnits="userSpaceOnUse">
<stop stop-color="#92A3FD"/>
<stop offset="1" stop-color="#9DCEFF"/>
</linearGradient>
<clipPath id="clip0_326_5617">
<rect width="73" height="90" fill="white" transform="translate(4)"/>
</clipPath>
</defs>
</svg>
